<mxfile host="app.diagrams.net" modified="2021-04-12T03:49:17.474Z" agent="5.0 (Windows NT 10.0; Win64; x64) AppleWebKit/537.36 (KHTML, like Gecko) Chrome/89.0.4389.114 Safari/537.36" etag="dACfVatb6fUfqCV3ybG9" version="14.5.10" type="github">
  <diagram id="bymFOXxrn5_BvPnEqQ4S" name="Page-1">
    <mxGraphModel dx="627" dy="933" grid="1" gridSize="10" guides="1" tooltips="1" connect="1" arrows="1" fold="1" page="1" pageScale="1" pageWidth="827" pageHeight="1169" math="0" shadow="0">
      <root>
        <mxCell id="0" />
        <mxCell id="1" parent="0" />
        <mxCell id="Yp8CZBlHFuohsSUHgXvk-1" value="Soongsil&lt;br&gt;Campus Map" style="ellipse;whiteSpace=wrap;html=1;aspect=fixed;fillColor=#dae8fc;strokeColor=#6c8ebf;" vertex="1" parent="1">
          <mxGeometry x="190" y="50" width="80" height="80" as="geometry" />
        </mxCell>
        <mxCell id="Yp8CZBlHFuohsSUHgXvk-2" value="User" style="rounded=0;whiteSpace=wrap;html=1;fillColor=#b0e3e6;strokeColor=#0e8088;" vertex="1" parent="1">
          <mxGeometry x="30" y="30" width="80" height="50" as="geometry" />
        </mxCell>
        <mxCell id="Yp8CZBlHFuohsSUHgXvk-3" value="" style="endArrow=classic;html=1;exitX=1;exitY=0.5;exitDx=0;exitDy=0;" edge="1" parent="1" source="Yp8CZBlHFuohsSUHgXvk-2" target="Yp8CZBlHFuohsSUHgXvk-1">
          <mxGeometry width="50" height="50" relative="1" as="geometry">
            <mxPoint x="170" y="160" as="sourcePoint" />
            <mxPoint x="220" y="110" as="targetPoint" />
          </mxGeometry>
        </mxCell>
        <mxCell id="Yp8CZBlHFuohsSUHgXvk-4" value="Map api" style="rounded=0;whiteSpace=wrap;html=1;fillColor=#b0e3e6;strokeColor=#0e8088;" vertex="1" parent="1">
          <mxGeometry x="30" y="130" width="80" height="50" as="geometry" />
        </mxCell>
        <mxCell id="Yp8CZBlHFuohsSUHgXvk-5" value="" style="endArrow=classic;html=1;exitX=1;exitY=0.75;exitDx=0;exitDy=0;entryX=0;entryY=1;entryDx=0;entryDy=0;" edge="1" parent="1" source="Yp8CZBlHFuohsSUHgXvk-4" target="Yp8CZBlHFuohsSUHgXvk-1">
          <mxGeometry width="50" height="50" relative="1" as="geometry">
            <mxPoint x="120" y="65" as="sourcePoint" />
            <mxPoint x="201.60000000000048" y="88.80000000000018" as="targetPoint" />
          </mxGeometry>
        </mxCell>
        <mxCell id="Yp8CZBlHFuohsSUHgXvk-6" value="" style="endArrow=classic;html=1;exitX=0.083;exitY=0.736;exitDx=0;exitDy=0;entryX=1;entryY=0.5;entryDx=0;entryDy=0;exitPerimeter=0;fillColor=#fff2cc;strokeColor=#1A1A1A;" edge="1" parent="1" source="Yp8CZBlHFuohsSUHgXvk-1" target="Yp8CZBlHFuohsSUHgXvk-4">
          <mxGeometry width="50" height="50" relative="1" as="geometry">
            <mxPoint x="120" y="177.5" as="sourcePoint" />
            <mxPoint x="211.7157287525381" y="128.2842712474619" as="targetPoint" />
          </mxGeometry>
        </mxCell>
        <mxCell id="Yp8CZBlHFuohsSUHgXvk-7" value="request" style="text;html=1;strokeColor=none;fillColor=none;align=center;verticalAlign=middle;whiteSpace=wrap;rounded=0;" vertex="1" parent="1">
          <mxGeometry x="130" y="45" width="40" height="20" as="geometry" />
        </mxCell>
        <mxCell id="Yp8CZBlHFuohsSUHgXvk-8" value="request" style="text;html=1;strokeColor=none;fillColor=none;align=center;verticalAlign=middle;whiteSpace=wrap;rounded=0;" vertex="1" parent="1">
          <mxGeometry x="120" y="110" width="40" height="20" as="geometry" />
        </mxCell>
        <mxCell id="Yp8CZBlHFuohsSUHgXvk-9" value="map information" style="text;html=1;strokeColor=none;fillColor=none;align=center;verticalAlign=middle;whiteSpace=wrap;rounded=0;" vertex="1" parent="1">
          <mxGeometry x="130" y="160" width="50" height="20" as="geometry" />
        </mxCell>
        <mxCell id="Yp8CZBlHFuohsSUHgXvk-10" value="" style="endArrow=classic;html=1;exitX=1;exitY=0.5;exitDx=0;exitDy=0;" edge="1" parent="1" source="Yp8CZBlHFuohsSUHgXvk-1" target="Yp8CZBlHFuohsSUHgXvk-11">
          <mxGeometry width="50" height="50" relative="1" as="geometry">
            <mxPoint x="310" y="150" as="sourcePoint" />
            <mxPoint x="360" y="90" as="targetPoint" />
          </mxGeometry>
        </mxCell>
        <mxCell id="Yp8CZBlHFuohsSUHgXvk-11" value="monitor" style="rounded=0;whiteSpace=wrap;html=1;fillColor=#b0e3e6;strokeColor=#0e8088;" vertex="1" parent="1">
          <mxGeometry x="360" y="65" width="80" height="50" as="geometry" />
        </mxCell>
        <mxCell id="Yp8CZBlHFuohsSUHgXvk-12" value="requested information" style="text;html=1;strokeColor=none;fillColor=none;align=center;verticalAlign=middle;whiteSpace=wrap;rounded=0;" vertex="1" parent="1">
          <mxGeometry x="290" y="65" width="50" height="20" as="geometry" />
        </mxCell>
        <mxCell id="Yp8CZBlHFuohsSUHgXvk-15" value="User" style="rounded=0;whiteSpace=wrap;html=1;fillColor=#b0e3e6;strokeColor=#0e8088;" vertex="1" parent="1">
          <mxGeometry x="30" y="270" width="80" height="50" as="geometry" />
        </mxCell>
        <mxCell id="Yp8CZBlHFuohsSUHgXvk-16" value="" style="endArrow=classic;html=1;exitX=1;exitY=0.5;exitDx=0;exitDy=0;" edge="1" parent="1" source="Yp8CZBlHFuohsSUHgXvk-15" target="Yp8CZBlHFuohsSUHgXvk-31">
          <mxGeometry width="50" height="50" relative="1" as="geometry">
            <mxPoint x="170" y="400" as="sourcePoint" />
            <mxPoint x="181.88296879946756" y="317.87185370892144" as="targetPoint" />
          </mxGeometry>
        </mxCell>
        <mxCell id="Yp8CZBlHFuohsSUHgXvk-17" value="Map api" style="rounded=0;whiteSpace=wrap;html=1;fillColor=#b0e3e6;strokeColor=#0e8088;" vertex="1" parent="1">
          <mxGeometry x="30" y="405" width="80" height="50" as="geometry" />
        </mxCell>
        <mxCell id="Yp8CZBlHFuohsSUHgXvk-18" value="" style="endArrow=classic;html=1;exitX=1;exitY=0.75;exitDx=0;exitDy=0;entryX=0.01;entryY=0.7;entryDx=0;entryDy=0;entryPerimeter=0;" edge="1" parent="1" source="Yp8CZBlHFuohsSUHgXvk-17" target="Yp8CZBlHFuohsSUHgXvk-42">
          <mxGeometry width="50" height="50" relative="1" as="geometry">
            <mxPoint x="120" y="305" as="sourcePoint" />
            <mxPoint x="300" y="340" as="targetPoint" />
          </mxGeometry>
        </mxCell>
        <mxCell id="Yp8CZBlHFuohsSUHgXvk-19" value="" style="endArrow=classic;html=1;entryX=1;entryY=0.5;entryDx=0;entryDy=0;fillColor=#fff2cc;strokeColor=#1A1A1A;" edge="1" parent="1" source="Yp8CZBlHFuohsSUHgXvk-42" target="Yp8CZBlHFuohsSUHgXvk-17">
          <mxGeometry width="50" height="50" relative="1" as="geometry">
            <mxPoint x="190" y="340" as="sourcePoint" />
            <mxPoint x="211.7157287525381" y="368.2842712474619" as="targetPoint" />
          </mxGeometry>
        </mxCell>
        <mxCell id="Yp8CZBlHFuohsSUHgXvk-20" value="request" style="text;html=1;strokeColor=none;fillColor=none;align=center;verticalAlign=middle;whiteSpace=wrap;rounded=0;" vertex="1" parent="1">
          <mxGeometry x="130" y="277" width="40" height="20" as="geometry" />
        </mxCell>
        <mxCell id="Yp8CZBlHFuohsSUHgXvk-21" value="map type request" style="text;html=1;strokeColor=none;fillColor=none;align=center;verticalAlign=middle;whiteSpace=wrap;rounded=0;" vertex="1" parent="1">
          <mxGeometry x="125" y="400" width="60" height="20" as="geometry" />
        </mxCell>
        <mxCell id="Yp8CZBlHFuohsSUHgXvk-22" value="map information" style="text;html=1;strokeColor=none;fillColor=none;align=center;verticalAlign=middle;whiteSpace=wrap;rounded=0;" vertex="1" parent="1">
          <mxGeometry x="130" y="450" width="50" height="20" as="geometry" />
        </mxCell>
        <mxCell id="Yp8CZBlHFuohsSUHgXvk-23" value="" style="endArrow=classic;html=1;exitX=1;exitY=0.5;exitDx=0;exitDy=0;" edge="1" parent="1" source="Yp8CZBlHFuohsSUHgXvk-42" target="Yp8CZBlHFuohsSUHgXvk-24">
          <mxGeometry width="50" height="50" relative="1" as="geometry">
            <mxPoint x="629.9999999999999" y="330" as="sourcePoint" />
            <mxPoint x="730" y="330" as="targetPoint" />
          </mxGeometry>
        </mxCell>
        <mxCell id="Yp8CZBlHFuohsSUHgXvk-24" value="monitor" style="rounded=0;whiteSpace=wrap;html=1;fillColor=#b0e3e6;strokeColor=#0e8088;" vertex="1" parent="1">
          <mxGeometry x="400" y="405" width="80" height="50" as="geometry" />
        </mxCell>
        <mxCell id="Yp8CZBlHFuohsSUHgXvk-25" value="requested information" style="text;html=1;strokeColor=none;fillColor=none;align=center;verticalAlign=middle;whiteSpace=wrap;rounded=0;" vertex="1" parent="1">
          <mxGeometry x="310" y="405" width="50" height="20" as="geometry" />
        </mxCell>
        <mxCell id="Yp8CZBlHFuohsSUHgXvk-26" value="" style="endArrow=none;html=1;strokeColor=#1A1A1A;" edge="1" parent="1">
          <mxGeometry width="50" height="50" relative="1" as="geometry">
            <mxPoint y="230" as="sourcePoint" />
            <mxPoint x="830" y="230" as="targetPoint" />
          </mxGeometry>
        </mxCell>
        <mxCell id="Yp8CZBlHFuohsSUHgXvk-27" value="&lt;font style=&quot;font-size: 22px&quot;&gt;&lt;b&gt;level 0&lt;/b&gt;&lt;/font&gt;" style="text;html=1;strokeColor=none;fillColor=none;align=center;verticalAlign=middle;whiteSpace=wrap;rounded=0;" vertex="1" parent="1">
          <mxGeometry x="720" y="10" width="90" height="20" as="geometry" />
        </mxCell>
        <mxCell id="Yp8CZBlHFuohsSUHgXvk-28" value="&lt;font style=&quot;font-size: 22px&quot;&gt;&lt;b&gt;level 1&lt;/b&gt;&lt;/font&gt;" style="text;html=1;strokeColor=none;fillColor=none;align=center;verticalAlign=middle;whiteSpace=wrap;rounded=0;" vertex="1" parent="1">
          <mxGeometry x="730" y="240" width="90" height="20" as="geometry" />
        </mxCell>
        <mxCell id="Yp8CZBlHFuohsSUHgXvk-31" value="Judge the type of request" style="ellipse;whiteSpace=wrap;html=1;fillColor=#dae8fc;strokeColor=#6c8ebf;" vertex="1" parent="1">
          <mxGeometry x="190" y="265" width="80" height="60" as="geometry" />
        </mxCell>
        <mxCell id="Yp8CZBlHFuohsSUHgXvk-34" value="Board" style="shape=partialRectangle;whiteSpace=wrap;html=1;left=0;right=0;fillColor=#F4F9FC;strokeWidth=2;strokeColor=#1A1A1A;" vertex="1" parent="1">
          <mxGeometry x="260" y="520" width="120" height="60" as="geometry" />
        </mxCell>
        <mxCell id="Yp8CZBlHFuohsSUHgXvk-35" value="" style="endArrow=classic;html=1;exitX=1;exitY=1;exitDx=0;exitDy=0;fillColor=#fff2cc;strokeColor=#1A1A1A;entryX=0.5;entryY=0;entryDx=0;entryDy=0;" edge="1" parent="1" source="Yp8CZBlHFuohsSUHgXvk-42" target="Yp8CZBlHFuohsSUHgXvk-34">
          <mxGeometry width="50" height="50" relative="1" as="geometry">
            <mxPoint x="379.9999999999999" y="327" as="sourcePoint" />
            <mxPoint x="270" y="407" as="targetPoint" />
          </mxGeometry>
        </mxCell>
        <mxCell id="Yp8CZBlHFuohsSUHgXvk-36" value="board type request" style="text;html=1;strokeColor=none;fillColor=none;align=center;verticalAlign=middle;whiteSpace=wrap;rounded=0;" vertex="1" parent="1">
          <mxGeometry x="226" y="480" width="60" height="20" as="geometry" />
        </mxCell>
        <mxCell id="Yp8CZBlHFuohsSUHgXvk-37" value="" style="endArrow=classic;html=1;exitX=0.75;exitY=0;exitDx=0;exitDy=0;entryX=1;entryY=0.5;entryDx=0;entryDy=0;" edge="1" parent="1" source="Yp8CZBlHFuohsSUHgXvk-34" target="Yp8CZBlHFuohsSUHgXvk-42">
          <mxGeometry width="50" height="50" relative="1" as="geometry">
            <mxPoint x="270" y="419.5" as="sourcePoint" />
            <mxPoint x="408.562913565784" y="318.0021423277824" as="targetPoint" />
          </mxGeometry>
        </mxCell>
        <mxCell id="Yp8CZBlHFuohsSUHgXvk-38" value="board imformation" style="text;html=1;strokeColor=none;fillColor=none;align=center;verticalAlign=middle;whiteSpace=wrap;rounded=0;" vertex="1" parent="1">
          <mxGeometry x="327" y="466" width="60" height="20" as="geometry" />
        </mxCell>
        <mxCell id="Yp8CZBlHFuohsSUHgXvk-41" value="" style="endArrow=classic;html=1;" edge="1" parent="1" source="Yp8CZBlHFuohsSUHgXvk-31" target="Yp8CZBlHFuohsSUHgXvk-42">
          <mxGeometry width="50" height="50" relative="1" as="geometry">
            <mxPoint x="120" y="417.5" as="sourcePoint" />
            <mxPoint x="340" y="295" as="targetPoint" />
          </mxGeometry>
        </mxCell>
        <mxCell id="Yp8CZBlHFuohsSUHgXvk-42" value="Send the type of request" style="ellipse;whiteSpace=wrap;html=1;fillColor=#dae8fc;strokeColor=#6c8ebf;" vertex="1" parent="1">
          <mxGeometry x="190" y="400" width="80" height="60" as="geometry" />
        </mxCell>
        <mxCell id="Yp8CZBlHFuohsSUHgXvk-47" value="request type" style="text;html=1;strokeColor=none;fillColor=none;align=center;verticalAlign=middle;whiteSpace=wrap;rounded=0;" vertex="1" parent="1">
          <mxGeometry x="236" y="350" width="40" height="20" as="geometry" />
        </mxCell>
        <mxCell id="Yp8CZBlHFuohsSUHgXvk-49" value="" style="endArrow=none;html=1;strokeColor=#1A1A1A;" edge="1" parent="1">
          <mxGeometry width="50" height="50" relative="1" as="geometry">
            <mxPoint x="10" y="610" as="sourcePoint" />
            <mxPoint x="840" y="610" as="targetPoint" />
          </mxGeometry>
        </mxCell>
        <mxCell id="Yp8CZBlHFuohsSUHgXvk-50" value="&lt;font style=&quot;font-size: 22px&quot;&gt;&lt;b&gt;level 2&lt;/b&gt;&lt;/font&gt;" style="text;html=1;strokeColor=none;fillColor=none;align=center;verticalAlign=middle;whiteSpace=wrap;rounded=0;" vertex="1" parent="1">
          <mxGeometry x="730" y="630" width="90" height="20" as="geometry" />
        </mxCell>
      </root>
    </mxGraphModel>
  </diagram>
</mxfile>
